<svg viewBox="0 0 540 306" xmlns="http://www.w3.org/2000/svg" font-family="system-ui, -apple-system, sans-serif">
  <rect width="540" height="306" fill="#fff"/>
  <text x="270.0" y="20" text-anchor="middle" font-size="11" fill="#212529" font-weight="bold">Every two minutes, for three weeks</text>

  <!-- monitoring app chrome -->
  <rect x="20" y="34" width="500" height="226" rx="5" fill="#1b1b25"/>
  <rect x="20" y="34" width="500" height="26" rx="5" fill="#25252f"/>
  <rect x="20" y="52" width="500" height="8" fill="#25252f"/>
  <circle cx="34" cy="47" r="4.5" fill="#7b3fbf"/>
  <text x="45" y="50" font-size="8" fill="#c9c9d4" font-weight="bold">Logs</text>
  <rect x="72" y="39" width="330" height="16" rx="8" fill="#1b1b25" stroke="#33333f" stroke-width="1"/>
  <text x="81" y="50" font-size="7.5" fill="#83839a" font-family="monospace">status:error service:github-sync org:acme</text>
  <text x="464" y="50" font-size="7.5" fill="#83839a">Past 7 days</text>
  <!-- log volume: a solid, unchanging wall -->
  <text x="34" y="68" font-size="7" fill="#83839a">Log volume</text>
  <rect x="34" y="74" width="5" height="32" fill="#fd456f" opacity="0.85"/>
  <rect x="41" y="73" width="5" height="33" fill="#fd456f" opacity="0.85"/>
  <rect x="48" y="75" width="5" height="31" fill="#fd456f" opacity="0.85"/>
  <rect x="55" y="72" width="5" height="34" fill="#fd456f" opacity="0.85"/>
  <rect x="62" y="72" width="5" height="34" fill="#fd456f" opacity="0.85"/>
  <rect x="69" y="76" width="5" height="30" fill="#fd456f" opacity="0.85"/>
  <rect x="76" y="72" width="5" height="34" fill="#fd456f" opacity="0.85"/>
  <rect x="83" y="74" width="5" height="32" fill="#fd456f" opacity="0.85"/>
  <rect x="90" y="76" width="5" height="30" fill="#fd456f" opacity="0.85"/>
  <rect x="97" y="72" width="5" height="34" fill="#fd456f" opacity="0.85"/>
  <rect x="104" y="76" width="5" height="30" fill="#fd456f" opacity="0.85"/>
  <rect x="111" y="73" width="5" height="33" fill="#fd456f" opacity="0.85"/>
  <rect x="118" y="72" width="5" height="34" fill="#fd456f" opacity="0.85"/>
  <rect x="125" y="72" width="5" height="34" fill="#fd456f" opacity="0.85"/>
  <rect x="132" y="75" width="5" height="31" fill="#fd456f" opacity="0.85"/>
  <rect x="139" y="75" width="5" height="31" fill="#fd456f" opacity="0.85"/>
  <rect x="146" y="72" width="5" height="34" fill="#fd456f" opacity="0.85"/>
  <rect x="153" y="73" width="5" height="33" fill="#fd456f" opacity="0.85"/>
  <rect x="160" y="72" width="5" height="34" fill="#fd456f" opacity="0.85"/>
  <rect x="167" y="76" width="5" height="30" fill="#fd456f" opacity="0.85"/>
  <rect x="174" y="75" width="5" height="31" fill="#fd456f" opacity="0.85"/>
  <rect x="181" y="72" width="5" height="34" fill="#fd456f" opacity="0.85"/>
  <rect x="188" y="76" width="5" height="30" fill="#fd456f" opacity="0.85"/>
  <rect x="195" y="72" width="5" height="34" fill="#fd456f" opacity="0.85"/>
  <rect x="202" y="73" width="5" height="33" fill="#fd456f" opacity="0.85"/>
  <rect x="209" y="76" width="5" height="30" fill="#fd456f" opacity="0.85"/>
  <rect x="216" y="72" width="5" height="34" fill="#fd456f" opacity="0.85"/>
  <rect x="223" y="76" width="5" height="30" fill="#fd456f" opacity="0.85"/>
  <rect x="230" y="76" width="5" height="30" fill="#fd456f" opacity="0.85"/>
  <rect x="237" y="75" width="5" height="31" fill="#fd456f" opacity="0.85"/>
  <rect x="244" y="72" width="5" height="34" fill="#fd456f" opacity="0.85"/>
  <rect x="251" y="73" width="5" height="33" fill="#fd456f" opacity="0.85"/>
  <rect x="258" y="72" width="5" height="34" fill="#fd456f" opacity="0.85"/>
  <rect x="265" y="76" width="5" height="30" fill="#fd456f" opacity="0.85"/>
  <rect x="272" y="73" width="5" height="33" fill="#fd456f" opacity="0.85"/>
  <rect x="279" y="74" width="5" height="32" fill="#fd456f" opacity="0.85"/>
  <rect x="286" y="75" width="5" height="31" fill="#fd456f" opacity="0.85"/>
  <rect x="293" y="73" width="5" height="33" fill="#fd456f" opacity="0.85"/>
  <rect x="300" y="76" width="5" height="30" fill="#fd456f" opacity="0.85"/>
  <rect x="307" y="72" width="5" height="34" fill="#fd456f" opacity="0.85"/>
  <rect x="314" y="76" width="5" height="30" fill="#fd456f" opacity="0.85"/>
  <rect x="321" y="74" width="5" height="32" fill="#fd456f" opacity="0.85"/>
  <rect x="328" y="76" width="5" height="30" fill="#fd456f" opacity="0.85"/>
  <rect x="335" y="73" width="5" height="33" fill="#fd456f" opacity="0.85"/>
  <rect x="342" y="72" width="5" height="34" fill="#fd456f" opacity="0.85"/>
  <rect x="349" y="76" width="5" height="30" fill="#fd456f" opacity="0.85"/>
  <rect x="356" y="76" width="5" height="30" fill="#fd456f" opacity="0.85"/>
  <rect x="363" y="73" width="5" height="33" fill="#fd456f" opacity="0.85"/>
  <rect x="370" y="74" width="5" height="32" fill="#fd456f" opacity="0.85"/>
  <rect x="377" y="72" width="5" height="34" fill="#fd456f" opacity="0.85"/>
  <rect x="384" y="76" width="5" height="30" fill="#fd456f" opacity="0.85"/>
  <rect x="391" y="72" width="5" height="34" fill="#fd456f" opacity="0.85"/>
  <rect x="398" y="76" width="5" height="30" fill="#fd456f" opacity="0.85"/>
  <rect x="405" y="72" width="5" height="34" fill="#fd456f" opacity="0.85"/>
  <rect x="412" y="76" width="5" height="30" fill="#fd456f" opacity="0.85"/>
  <rect x="419" y="73" width="5" height="33" fill="#fd456f" opacity="0.85"/>
  <rect x="426" y="75" width="5" height="31" fill="#fd456f" opacity="0.85"/>
  <rect x="433" y="76" width="5" height="30" fill="#fd456f" opacity="0.85"/>
  <rect x="440" y="75" width="5" height="31" fill="#fd456f" opacity="0.85"/>
  <rect x="447" y="74" width="5" height="32" fill="#fd456f" opacity="0.85"/>
  <rect x="454" y="75" width="5" height="31" fill="#fd456f" opacity="0.85"/>
  <rect x="461" y="76" width="5" height="30" fill="#fd456f" opacity="0.85"/>
  <rect x="468" y="75" width="5" height="31" fill="#fd456f" opacity="0.85"/>
  <rect x="475" y="74" width="5" height="32" fill="#fd456f" opacity="0.85"/>
  <rect x="482" y="74" width="5" height="32" fill="#fd456f" opacity="0.85"/>
  <rect x="489" y="73" width="5" height="33" fill="#fd456f" opacity="0.85"/>
  <rect x="496" y="73" width="5" height="33" fill="#fd456f" opacity="0.85"/>
  <rect x="503" y="73" width="5" height="33" fill="#fd456f" opacity="0.85"/>
  <line x1="34" y1="106" x2="506" y2="106" stroke="#33333f" stroke-width="1"/>

  <text x="36" y="126" font-size="7" fill="#83839a">DATE</text>
  <text x="102" y="126" font-size="7" fill="#83839a">STATUS</text>
  <text x="148" y="126" font-size="7" fill="#83839a">SERVICE</text>
  <text x="232" y="126" font-size="7" fill="#83839a">CONTENT</text>
  <line x1="34" y1="131" x2="506" y2="131" stroke="#33333f" stroke-width="1"/>
  <rect x="34" y="136" width="472" height="17" fill="#25252f"/>
  <text x="36" y="147" font-size="7.5" fill="#83839a" font-family="monospace">14:02:11</text>
  <rect x="100" y="139" width="30" height="11" rx="3" fill="#fd456f"/>
  <text x="115" y="147" text-anchor="middle" font-size="7" fill="#fff" font-weight="bold">401</text>
  <text x="148" y="147" font-size="7.5" fill="#c9c9d4" font-family="monospace">github-sync</text>
  <text x="232" y="147" font-size="7.5" fill="#c9c9d4" font-family="monospace">Bad credentials &#183; org=acme</text>
  <text x="36" y="164" font-size="7.5" fill="#83839a" font-family="monospace">14:04:11</text>
  <rect x="100" y="156" width="30" height="11" rx="3" fill="#fd456f"/>
  <text x="115" y="164" text-anchor="middle" font-size="7" fill="#fff" font-weight="bold">401</text>
  <text x="148" y="164" font-size="7.5" fill="#c9c9d4" font-family="monospace">github-sync</text>
  <text x="232" y="164" font-size="7.5" fill="#c9c9d4" font-family="monospace">Bad credentials &#183; org=acme</text>
  <rect x="34" y="170" width="472" height="17" fill="#25252f"/>
  <text x="36" y="181" font-size="7.5" fill="#83839a" font-family="monospace">14:06:11</text>
  <rect x="100" y="173" width="30" height="11" rx="3" fill="#fd456f"/>
  <text x="115" y="181" text-anchor="middle" font-size="7" fill="#fff" font-weight="bold">401</text>
  <text x="148" y="181" font-size="7.5" fill="#c9c9d4" font-family="monospace">github-sync</text>
  <text x="232" y="181" font-size="7.5" fill="#c9c9d4" font-family="monospace">Bad credentials &#183; org=acme</text>
  <text x="36" y="198" font-size="7.5" fill="#83839a" font-family="monospace">14:08:11</text>
  <rect x="100" y="190" width="30" height="11" rx="3" fill="#fd456f"/>
  <text x="115" y="198" text-anchor="middle" font-size="7" fill="#fff" font-weight="bold">401</text>
  <text x="148" y="198" font-size="7.5" fill="#c9c9d4" font-family="monospace">github-sync</text>
  <text x="232" y="198" font-size="7.5" fill="#c9c9d4" font-family="monospace">Bad credentials &#183; org=acme</text>
  <rect x="34" y="204" width="472" height="17" fill="#25252f"/>
  <text x="36" y="215" font-size="7.5" fill="#83839a" font-family="monospace">14:10:11</text>
  <rect x="100" y="207" width="30" height="11" rx="3" fill="#fd456f"/>
  <text x="115" y="215" text-anchor="middle" font-size="7" fill="#fff" font-weight="bold">401</text>
  <text x="148" y="215" font-size="7.5" fill="#c9c9d4" font-family="monospace">github-sync</text>
  <text x="232" y="215" font-size="7.5" fill="#c9c9d4" font-family="monospace">Bad credentials &#183; org=acme</text>
  <text x="36" y="232" font-size="7.5" fill="#83839a" font-family="monospace">14:12:11</text>
  <rect x="100" y="224" width="30" height="11" rx="3" fill="#fd456f"/>
  <text x="115" y="232" text-anchor="middle" font-size="7" fill="#fff" font-weight="bold">401</text>
  <text x="148" y="232" font-size="7.5" fill="#c9c9d4" font-family="monospace">github-sync</text>
  <text x="232" y="232" font-size="7.5" fill="#c9c9d4" font-family="monospace">Bad credentials &#183; org=acme</text>
  <text x="36" y="252" font-size="7.5" fill="#83839a">&#8230; 14 883 more</text>
  <text x="270.0" y="298" text-anchor="middle" font-size="9" fill="#6c757d">Perfectly logged. Perfectly monitored. Nobody told the one person who could fix it.</text>
</svg>
