<svg viewBox="0 0 500 160" xmlns="http://www.w3.org/2000/svg" font-family="system-ui, -apple-system, sans-serif">
  <!-- Background -->
  <rect width="500" height="160" fill="#fff"/>

  <!-- Title -->
  <text x="250" y="20" text-anchor="middle" font-size="11" fill="#212529" font-weight="bold">Interquartile Range (IQR)</text>

  <!-- Example data label -->
  <text x="250" y="36" text-anchor="middle" font-size="9" fill="#6c757d">Example: [2, 4, 5, 7, 8, 10, 12, 14, 15, 18, 20, 22]</text>

  <!-- Main axis -->
  <line x1="40" y1="80" x2="460" y2="80" stroke="#212529" stroke-width="1"/>

  <!-- Axis tick marks and values -->
  <line x1="50" y1="77" x2="50" y2="83" stroke="#212529" stroke-width="1"/>
  <text x="50" y="93" text-anchor="middle" font-size="7" fill="#6c757d">2</text>

  <line x1="87" y1="77" x2="87" y2="83" stroke="#212529" stroke-width="1"/>
  <text x="87" y="93" text-anchor="middle" font-size="7" fill="#6c757d">4</text>

  <line x1="106" y1="77" x2="106" y2="83" stroke="#212529" stroke-width="1"/>
  <text x="106" y="93" text-anchor="middle" font-size="7" fill="#6c757d">5</text>

  <line x1="143" y1="77" x2="143" y2="83" stroke="#212529" stroke-width="1"/>
  <text x="143" y="93" text-anchor="middle" font-size="7" fill="#6c757d">7</text>

  <line x1="162" y1="77" x2="162" y2="83" stroke="#212529" stroke-width="1"/>
  <text x="162" y="93" text-anchor="middle" font-size="7" fill="#6c757d">8</text>

  <line x1="200" y1="77" x2="200" y2="83" stroke="#212529" stroke-width="1"/>
  <text x="200" y="93" text-anchor="middle" font-size="7" fill="#6c757d">10</text>

  <line x1="237" y1="77" x2="237" y2="83" stroke="#212529" stroke-width="1"/>
  <text x="237" y="93" text-anchor="middle" font-size="7" fill="#6c757d">12</text>

  <line x1="275" y1="77" x2="275" y2="83" stroke="#212529" stroke-width="1"/>
  <text x="275" y="93" text-anchor="middle" font-size="7" fill="#6c757d">14</text>

  <line x1="293" y1="77" x2="293" y2="83" stroke="#212529" stroke-width="1"/>
  <text x="293" y="93" text-anchor="middle" font-size="7" fill="#6c757d">15</text>

  <line x1="350" y1="77" x2="350" y2="83" stroke="#212529" stroke-width="1"/>
  <text x="350" y="93" text-anchor="middle" font-size="7" fill="#6c757d">18</text>

  <line x1="387" y1="77" x2="387" y2="83" stroke="#212529" stroke-width="1"/>
  <text x="387" y="93" text-anchor="middle" font-size="7" fill="#6c757d">20</text>

  <line x1="425" y1="77" x2="425" y2="83" stroke="#212529" stroke-width="1"/>
  <text x="425" y="93" text-anchor="middle" font-size="7" fill="#6c757d">22</text>

  <!-- Data points -->
  <!-- Lower 25%: 2, 4, 5 -->
  <circle cx="50" cy="80" r="5" fill="#6c757d"/>
  <circle cx="87" cy="80" r="5" fill="#6c757d"/>
  <circle cx="106" cy="80" r="5" fill="#6c757d"/>

  <!-- Middle 50% (IQR): 7, 8, 10, 12, 14, 15 -->
  <circle cx="143" cy="80" r="5" fill="#ffed50" stroke="#212529" stroke-width="1"/>
  <circle cx="162" cy="80" r="5" fill="#ffed50" stroke="#212529" stroke-width="1"/>
  <circle cx="200" cy="80" r="5" fill="#ffed50" stroke="#212529" stroke-width="1"/>
  <circle cx="237" cy="80" r="5" fill="#ffed50" stroke="#212529" stroke-width="1"/>
  <circle cx="275" cy="80" r="5" fill="#ffed50" stroke="#212529" stroke-width="1"/>
  <circle cx="293" cy="80" r="5" fill="#ffed50" stroke="#212529" stroke-width="1"/>

  <!-- Upper 25%: 18, 20, 22 -->
  <circle cx="350" cy="80" r="5" fill="#6c757d"/>
  <circle cx="387" cy="80" r="5" fill="#6c757d"/>
  <circle cx="425" cy="80" r="5" fill="#6c757d"/>

  <!-- IQR bracket -->
  <line x1="125" y1="60" x2="125" y2="70" stroke="#ffed50" stroke-width="3"/>
  <line x1="125" y1="60" x2="312" y2="60" stroke="#ffed50" stroke-width="3"/>
  <line x1="312" y1="60" x2="312" y2="70" stroke="#ffed50" stroke-width="3"/>

  <!-- Q1 marker -->
  <line x1="125" y1="100" x2="125" y2="115" stroke="#212529" stroke-width="2"/>
  <text x="125" y="127" text-anchor="middle" font-size="9" fill="#212529" font-weight="bold">Q1 = 6.0</text>
  <text x="125" y="142" text-anchor="middle" font-size="10" fill="#6c757d" font-weight="normal">= median[2, 4, 5, 7, 8, 10] </text>
  <text x="125" y="157" text-anchor="middle" font-size="10" fill="#6c757d" font-weight="normal">= (5+7) / 2 = 6</text>

  <!-- Q3 marker -->
  <line x1="312" y1="100" x2="312" y2="115" stroke="#212529" stroke-width="2"/>
  <text x="312" y="127" text-anchor="middle" font-size="9" fill="#212529" font-weight="bold">Q3 = 16.8</text>
  <text x="312" y="142" text-anchor="middle" font-size="10" fill="#6c757d" font-weight="normal">median[12, 14, 15, 18, 20, 22]</text>
  <text x="312" y="157" text-anchor="middle" font-size="10" fill="#6c757d" font-weight="normal">= (15+18) / 2 = 16.5</text>

  <!-- IQR calculation -->
  <text x="218" y="52" text-anchor="middle" font-size="10" fill="#212529" font-weight="bold">IQR = Q3 - Q1 = 16.5 - 6.0 = 10.5</text>

  <!-- 25% labels -->
  <text x="72" y="74" text-anchor="middle" font-size="10" fill="#6c757d">25%</text>
  <text x="218" y="74" text-anchor="middle" font-size="10" fill="#6c757d">50%</text>
  <text x="380" y="74" text-anchor="middle" font-size="10" fill="#6c757d">25%</text>
</svg>
