<svg viewBox="0 0 500 200" xmlns="http://www.w3.org/2000/svg" font-family="system-ui, -apple-system, sans-serif">
  <!-- Background -->
  <rect width="500" height="200" fill="#fff"/>

  <!-- Axes -->
  <line x1="50" y1="165" x2="470" y2="165" stroke="#212529" stroke-width="1.5"/>
  <line x1="50" y1="165" x2="50" y2="20" stroke="#212529" stroke-width="1.5"/>

  <!-- Y-axis labels -->
  <text x="40" y="36" text-anchor="end" font-size="11" fill="#212529">70</text>
  <text x="40" y="62" text-anchor="end" font-size="11" fill="#212529">60</text>
  <text x="40" y="88" text-anchor="end" font-size="11" fill="#212529">50</text>
  <text x="40" y="114" text-anchor="end" font-size="11" fill="#212529">40</text>
  <text x="40" y="140" text-anchor="end" font-size="11" fill="#212529">30</text>
  <text x="40" y="166" text-anchor="end" font-size="11" fill="#212529">20</text>

  <!-- Y-axis title -->
  <text x="15" y="92" text-anchor="middle" font-size="11" fill="#212529" transform="rotate(-90, 15, 92)">Memory (%)</text>

  <!-- X-axis label -->
  <text x="260" y="182" text-anchor="middle" font-size="11" fill="#212529">time</text>
  <polygon points="465,165 455,161 455,169" fill="#212529"/>

  <!-- Grid lines (subtle) -->
  <line x1="50" y1="33" x2="470" y2="33" stroke="#dadada" stroke-width="0.5"/>
  <line x1="50" y1="59" x2="470" y2="59" stroke="#dadada" stroke-width="0.5"/>
  <line x1="50" y1="85" x2="470" y2="85" stroke="#dadada" stroke-width="0.5"/>
  <line x1="50" y1="111" x2="470" y2="111" stroke="#dadada" stroke-width="0.5"/>
  <line x1="50" y1="137" x2="470" y2="137" stroke="#dadada" stroke-width="0.5"/>

  <!-- Data points - stretched bands pattern -->
  <!-- Band around 45-50 - first streak -->
  <circle cx="70" cy="89" r="3" fill="#ffed50"/>
  <circle cx="80" cy="86" r="3" fill="#ffed50"/>
  <circle cx="88" cy="91" r="3" fill="#ffed50"/>
  <circle cx="97" cy="87" r="3" fill="#ffed50"/>
  <circle cx="108" cy="84" r="3" fill="#ffed50"/>
  <circle cx="118" cy="89" r="3" fill="#ffed50"/>
  <circle cx="130" cy="86" r="3" fill="#ffed50"/>

  <!-- Dip to 35-40 -->
  <circle cx="140" cy="109" r="3" fill="#ffed50"/>
  <circle cx="152" cy="113" r="3" fill="#ffed50"/>
  <circle cx="162" cy="111" r="3" fill="#ffed50"/>
  <circle cx="175" cy="115" r="3" fill="#ffed50"/>
  <circle cx="185" cy="112" r="3" fill="#ffed50"/>

  <!-- Drop to 30 -->
  <circle cx="195" cy="138" r="3" fill="#ffed50"/>
  <circle cx="205" cy="141" r="3" fill="#ffed50"/>

  <!-- Deep dip to 20 -->
  <circle cx="215" cy="162" r="3" fill="#ffed50"/>
  <circle cx="222" cy="158" r="3" fill="#ffed50"/>

  <!-- Recovery band 40-45 -->
  <circle cx="235" cy="111" r="3" fill="#ffed50"/>
  <circle cx="245" cy="105" r="3" fill="#ffed50"/>
  <circle cx="255" cy="109" r="3" fill="#ffed50"/>
  <circle cx="268" cy="102" r="3" fill="#ffed50"/>
  <circle cx="278" cy="107" r="3" fill="#ffed50"/>

  <!-- Spike up to 60 then 70 -->
  <circle cx="290" cy="62" r="3" fill="#ffed50"/>
  <circle cx="300" cy="56" r="3" fill="#ffed50"/>
  <circle cx="310" cy="33" r="4" fill="#ff0040"/>

  <!-- Back to scattered 40-50 -->
  <circle cx="322" cy="86" r="3" fill="#ffed50"/>
  <circle cx="332" cy="96" r="3" fill="#ffed50"/>
  <circle cx="340" cy="91" r="3" fill="#ffed50"/>
  <circle cx="352" cy="102" r="3" fill="#ffed50"/>
  <circle cx="362" cy="98" r="3" fill="#ffed50"/>

  <!-- Another dip -->
  <circle cx="372" cy="125" r="3" fill="#ffed50"/>
  <circle cx="380" cy="138" r="3" fill="#ffed50"/>
  <circle cx="388" cy="128" r="3" fill="#ffed50"/>

  <!-- Final band 45-55 -->
  <circle cx="400" cy="92" r="3" fill="#ffed50"/>
  <circle cx="412" cy="82" r="3" fill="#ffed50"/>
  <circle cx="422" cy="87" r="3" fill="#ffed50"/>
  <circle cx="435" cy="79" r="3" fill="#ffed50"/>
  <circle cx="445" cy="84" r="3" fill="#ffed50"/>
  <circle cx="458" cy="89" r="3" fill="#ffed50"/>

  <!-- Spike annotation -->
  <text x="310" y="24" text-anchor="middle" font-size="10" fill="#fd456f">spike?</text>
  <line x1="310" y1="27" x2="310" y2="31" stroke="#fd456f" stroke-width="1"/>
</svg>
