<?xml version="1.0" standalone="no"?>
<!DOCTYPE svg PUBLIC "-//W3C//DTD SVG 20010904//EN"
 "http://www.w3.org/TR/2001/REC-SVG-20010904/DTD/svg10.dtd">
<svg version="1.0" xmlns="http://www.w3.org/2000/svg"
 width="800.000000pt" height="800.000000pt" viewBox="0 0 800.000000 800.000000"
 preserveAspectRatio="xMidYMid meet">
<metadata>
Created by potrace 1.11, written by Peter Selinger 2001-2013
</metadata>
<g transform="translate(0.000000,800.000000) scale(0.100000,-0.100000)"
fill="#000000" stroke="none">
<path d="M1163 6200 l-161 -480 641 0 642 0 -163 -163 -162 -162 0 -398 0
-397 -78 0 -77 0 -158 -473 c-86 -260 -157 -476 -157 -480 0 -4 106 -7 235 -7
l235 0 0 -680 0 -680 -319 0 -319 0 -160 -480 -160 -480 1361 0 1362 0 154
468 c85 257 156 473 158 480 4 9 -143 12 -714 12 l-718 0 158 158 157 157 0
1563 0 1562 403 0 403 0 154 468 c84 257 155 473 158 480 3 9 -272 12 -1354
12 l-1359 0 -162 -480z"/>
<path d="M4105 6668 c-8 -21 -315 -943 -315 -945 0 -2 179 -3 397 -3 l398 0
-158 -158 -157 -157 0 -402 0 -402 -82 -3 -81 -3 -154 -460 c-84 -253 -156
-468 -159 -477 -5 -17 11 -18 235 -18 l241 0 0 -720 0 -719 -82 -3 -81 -3
-154 -460 c-84 -253 -156 -468 -159 -478 -6 -18 7 -19 318 -15 293 4 330 7
403 26 344 94 608 370 691 722 16 68 18 153 21 863 l4 787 572 0 c617 0 662 3
842 55 345 100 683 415 816 760 75 196 94 371 86 810 -5 254 -9 315 -27 398
-54 251 -170 460 -360 646 -219 214 -464 331 -759 360 -159 17 -2290 15 -2296
-1z m2297 -977 c65 -33 126 -96 157 -161 l26 -55 0 -315 0 -315 -26 -56 c-33
-69 -95 -134 -158 -163 -44 -20 -61 -21 -451 -24 l-405 -3 -157 -157 -158
-157 0 718 0 718 563 -3 562 -3 47 -24z"/>
</g>
</svg>
